<svg
  width="500"
  height="500"
  viewBox="0 0 500 500"
  fill="none"
  xmlns="http://www.w3.org/2000/svg"
>
  <rect width="500" height="500" rx="100" fill="#004799" />
  <g clip-path="url(#clip0_109_6)">
    <path
      d="M232.917 131H215.833C204.516 131 195.333 140.994 195.333 153.312V205.375C195.333 221.784 207.591 235.125 222.667 235.125H277.333C292.409 235.125 304.667 221.784 304.667 205.375V153.312C304.667 140.994 295.484 131 284.167 131H267.083V168.188C267.083 172.278 264.008 175.625 260.25 175.625H239.75C235.992 175.625 232.917 172.278 232.917 168.188V131ZM154.333 250C139.257 250 127 263.341 127 279.75V339.25C127 355.659 139.257 369 154.333 369H222.667C237.743 369 250 355.659 250 339.25V279.75C250 263.341 237.743 250 222.667 250H205.583V287.188C205.583 291.278 202.508 294.625 198.75 294.625H178.25C174.492 294.625 171.417 291.278 171.417 287.188V250H154.333ZM277.333 369H345.667C360.743 369 373 355.659 373 339.25V279.75C373 263.341 360.743 250 345.667 250H328.583V287.188C328.583 291.278 325.508 294.625 321.75 294.625H301.25C297.492 294.625 294.417 291.278 294.417 287.188V250H277.333C270.927 250 265.033 252.371 260.378 256.415C262.471 261.249 263.667 266.641 263.667 272.312V346.688C263.667 352.359 262.471 357.751 260.378 362.585C265.033 366.629 270.927 369 277.333 369Z"
      fill="white"
    />
  </g>
  <defs>
    <clipPath id="clip0_109_6">
      <rect
        width="246"
        height="238"
        fill="white"
        transform="translate(127 131)"
      />
    </clipPath>
  </defs>
</svg>
